#define ac_width 14
#define ac_height 14
static unsigned char ac_bits[] = {
   0x00, 0x00, 0x00, 0x00, 0x00, 0x00, 0x80, 0x01, 0x40, 0x01, 0x20, 0x07,
   0x38, 0x01, 0x38, 0x01, 0x20, 0x07, 0x40, 0x01, 0x80, 0x01, 0x00, 0x00,
   0x00, 0x00, 0x00, 0x00 };
