#define battery70_width 14
#define battery70_height 14
static unsigned char battery70_bits[] = {
   0x00, 0x00, 0x00, 0x00, 0x00, 0x00, 0xff, 0x0f, 0x01, 0x08, 0xfd, 0x38,
   0xfd, 0x28, 0xfd, 0x28, 0xfd, 0x28, 0xfd, 0x38, 0x01, 0x08, 0xff, 0x0f,
   0x00, 0x00, 0x00, 0x00 };
