#define battery60_width 14
#define battery60_height 14
static unsigned char battery60_bits[] = {
   0x00, 0x00, 0x00, 0x00, 0x00, 0x00, 0xff, 0x0f, 0x01, 0x08, 0x7d, 0x38,
   0x7d, 0x28, 0x7d, 0x28, 0x7d, 0x28, 0x7d, 0x38, 0x01, 0x08, 0xff, 0x0f,
   0x00, 0x00, 0x00, 0x00 };
