#define battery80_width 14
#define battery80_height 14
static unsigned char battery80_bits[] = {
   0x00, 0x00, 0x00, 0x00, 0x00, 0x00, 0xff, 0x0f, 0x01, 0x08, 0xfd, 0x39,
   0xfd, 0x29, 0xfd, 0x29, 0xfd, 0x29, 0xfd, 0x39, 0x01, 0x08, 0xff, 0x0f,
   0x00, 0x00, 0x00, 0x00 };
