#define battery50_width 14
#define battery50_height 14
static unsigned char battery50_bits[] = {
   0x00, 0x00, 0x00, 0x00, 0x00, 0x00, 0xff, 0x0f, 0x01, 0x08, 0x3d, 0x38,
   0x3d, 0x28, 0x3d, 0x28, 0x3d, 0x28, 0x3d, 0x38, 0x01, 0x08, 0xff, 0x0f,
   0x00, 0x00, 0x00, 0x00 };
