#define battery10_width 14
#define battery10_height 14
static unsigned char battery10_bits[] = {
   0x00, 0x00, 0x00, 0x00, 0x00, 0x00, 0xff, 0x0f, 0x01, 0x08, 0x01, 0x38,
   0x01, 0x28, 0x01, 0x28, 0x01, 0x28, 0x01, 0x38, 0x01, 0x08, 0xff, 0x0f,
   0x00, 0x00, 0x00, 0x00 };
