#define battery40_width 14
#define battery40_height 14
static unsigned char battery40_bits[] = {
   0x00, 0x00, 0x00, 0x00, 0x00, 0x00, 0xff, 0x0f, 0x01, 0x08, 0x1d, 0x38,
   0x1d, 0x28, 0x1d, 0x28, 0x1d, 0x28, 0x1d, 0x38, 0x01, 0x08, 0xff, 0x0f,
   0x00, 0x00, 0x00, 0x00 };
