#define wlan2_width 14
#define wlan2_height 14
static unsigned char wlan2_bits[] = {
   0x00, 0x00, 0x00, 0x00, 0x00, 0x00, 0x00, 0x00, 0x00, 0x00, 0x00, 0x00,
   0x00, 0x00, 0x00, 0x00, 0x00, 0x00, 0x18, 0x00, 0x18, 0x00, 0x1b, 0x00,
   0x00, 0x00, 0x00, 0x00 };
