#define spotify_small_width 12
#define spotify_small_height 12
static unsigned short spotify_small_bits[] = {
   0x0080, 0x0200, 0x0402, 0x05b0, 0x0200, 0x00e8, 0x0800, 0x0881, 0x0020,
   0x043e, 0x0304, 0x00f0 };
